<svg xmlns="http://www.w3.org/2000/svg" xmlns:xlink="http://www.w3.org/1999/xlink" width="500" zoomAndPan="magnify" viewBox="0 0 375 374.999991" height="500" preserveAspectRatio="xMidYMid meet" version="1.0"><defs><g/></defs><rect x="-37.5" width="450" fill="#ffffff" y="-37.499999" height="449.999989" fill-opacity="1"/><rect x="-37.5" width="450" fill="#ff3131" y="-37.499999" height="449.999989" fill-opacity="1"/><g fill="#f8f7f0" fill-opacity="1"><g transform="translate(81.000718, 225.45742)"><g><path d="M 58.015625 2.765625 L 9.671875 -111.4375 L 9.671875 -121.34375 L 36.84375 -121.34375 L 67.6875 -43.515625 Z M 97.625 0 L 97.625 -121.34375 L 125.953125 -121.34375 L 125.953125 0 Z M 97.625 0 "/></g></g></g><g fill="#f8f7f0" fill-opacity="1"><g transform="translate(193.822338, 225.45742)"><g><path d="M 51.8125 2.765625 C 51.8125 2.765625 50.234375 2.109375 47.078125 0.796875 C 43.929688 -0.503906 40.019531 -2.648438 35.34375 -5.640625 C 30.664062 -8.628906 25.984375 -12.539062 21.296875 -17.375 C 16.617188 -22.21875 12.703125 -28.164062 9.546875 -35.21875 C 6.398438 -42.28125 4.828125 -50.492188 4.828125 -59.859375 C 4.828125 -69.378906 6.398438 -77.671875 9.546875 -84.734375 C 12.703125 -91.796875 16.617188 -97.820312 21.296875 -102.8125 C 25.984375 -107.800781 30.664062 -111.867188 35.34375 -115.015625 C 40.019531 -118.160156 43.929688 -120.460938 47.078125 -121.921875 C 50.234375 -123.378906 51.8125 -124.109375 51.8125 -124.109375 C 51.8125 -124.109375 51.082031 -123.414062 49.625 -122.03125 C 48.164062 -120.644531 46.472656 -117.84375 44.546875 -113.625 C 42.628906 -109.40625 40.941406 -103.070312 39.484375 -94.625 C 38.023438 -86.1875 37.296875 -74.90625 37.296875 -60.78125 C 37.296875 -46.664062 38.023438 -35.347656 39.484375 -26.828125 C 40.941406 -18.304688 42.628906 -11.929688 44.546875 -7.703125 C 46.472656 -3.484375 48.164062 -0.6875 49.625 0.6875 C 51.082031 2.070312 51.8125 2.765625 51.8125 2.765625 Z M 81.28125 -93.9375 C 77.4375 -93.9375 74.132812 -95.28125 71.375 -97.96875 C 68.613281 -100.65625 67.234375 -103.914062 67.234375 -107.75 C 67.234375 -111.75 68.613281 -115.085938 71.375 -117.765625 C 74.132812 -120.453125 77.4375 -121.796875 81.28125 -121.796875 C 85.269531 -121.796875 88.609375 -120.453125 91.296875 -117.765625 C 93.984375 -115.085938 95.328125 -111.75 95.328125 -107.75 C 95.328125 -103.914062 93.984375 -100.65625 91.296875 -97.96875 C 88.609375 -95.28125 85.269531 -93.9375 81.28125 -93.9375 Z M 81.28125 -93.9375 "/></g></g></g><g fill="#f8f7f0" fill-opacity="1"><g transform="translate(111.936808, 271.785275)"><g><path d="M 2.671875 -10.5625 C 5.191406 -10.5625 6.453125 -9.585938 6.453125 -7.640625 C 6.453125 -6.828125 6.21875 -6.15625 5.75 -5.625 C 5.28125 -5.101562 4.632812 -4.804688 3.8125 -4.734375 L 7.171875 0 L 5.71875 0 L 2.53125 -4.640625 L 2.234375 -4.640625 L 2.234375 0 L 1.0625 0 L 1.0625 -10.5625 Z M 2.234375 -5.671875 L 2.765625 -5.671875 C 3.585938 -5.671875 4.210938 -5.820312 4.640625 -6.125 C 5.066406 -6.4375 5.28125 -6.914062 5.28125 -7.5625 C 5.28125 -8.257812 5.070312 -8.75 4.65625 -9.03125 C 4.238281 -9.320312 3.640625 -9.46875 2.859375 -9.46875 L 2.234375 -9.46875 Z M 2.234375 -5.671875 "/></g></g></g><g fill="#f8f7f0" fill-opacity="1"><g transform="translate(123.020566, 271.785275)"><g><path d="M 6.53125 -10.5625 L 6.53125 -9.46875 L 2.234375 -9.46875 L 2.234375 -6.328125 L 6.40625 -6.328125 L 6.40625 -5.234375 L 2.234375 -5.234375 L 2.234375 -1.09375 L 6.53125 -1.09375 L 6.53125 0 L 1.0625 0 L 1.0625 -10.5625 Z M 6.53125 -10.5625 "/></g></g></g><g fill="#f8f7f0" fill-opacity="1"><g transform="translate(133.992377, 271.785275)"><g><path d="M 6.4375 -10.5625 L 6.4375 -9.46875 L 3.859375 -9.46875 L 3.859375 0 L 2.6875 0 L 2.6875 -9.46875 L 0.140625 -9.46875 L 0.140625 -10.5625 Z M 6.4375 -10.5625 "/></g></g></g><g fill="#f8f7f0" fill-opacity="1"><g transform="translate(144.068689, 271.785275)"><g><path d="M 4.953125 -11.0625 L 9.703125 0 L 8.40625 0 L 7.15625 -3 L 2.640625 -3 L 1.375 0 L 0.078125 0 Z M 3.125 -4.09375 L 6.6875 -4.09375 L 4.921875 -8.3125 Z M 1.90625 -10.5625 Z M 1.90625 -10.5625 "/></g></g></g><g fill="#f8f7f0" fill-opacity="1"><g transform="translate(157.349219, 271.785275)"><g><path d="M 2.265625 -10.5625 L 2.265625 0 L 1.09375 0 L 1.09375 -10.5625 Z M 2.265625 -10.5625 "/></g></g></g><g fill="#f8f7f0" fill-opacity="1"><g transform="translate(164.193344, 271.785275)"><g><path d="M 2.234375 -10.5625 L 2.234375 -1.09375 L 5.15625 -1.09375 L 5.15625 0 L 1.0625 0 L 1.0625 -10.5625 Z M 2.234375 -10.5625 "/></g></g></g><g fill="#f8f7f0" fill-opacity="1"><g transform="translate(172.9404, 271.785275)"><g/></g></g><g fill="#f8f7f0" fill-opacity="1"><g transform="translate(180.74998, 271.785275)"><g><path d="M 2.4375 -11.15625 L 6.265625 -2.296875 L 10.125 -11.15625 L 12.265625 0 L 11.0625 0 L 9.703125 -7.140625 L 9.671875 -7.140625 L 6.265625 0.4375 L 2.890625 -7.140625 L 2.859375 -7.140625 L 1.5 0 L 0.296875 0 Z M 0.59375 -10.5625 Z M 0.59375 -10.5625 "/></g></g></g><g fill="#f8f7f0" fill-opacity="1"><g transform="translate(196.786967, 271.785275)"><g><path d="M 4.953125 -11.0625 L 9.703125 0 L 8.40625 0 L 7.15625 -3 L 2.640625 -3 L 1.375 0 L 0.078125 0 Z M 3.125 -4.09375 L 6.6875 -4.09375 L 4.921875 -8.3125 Z M 1.90625 -10.5625 Z M 1.90625 -10.5625 "/></g></g></g><g fill="#f8f7f0" fill-opacity="1"><g transform="translate(210.067498, 271.785275)"><g><path d="M 1.140625 -11 L 9.359375 -2.375 L 9.359375 -10.5625 L 10.546875 -10.5625 L 10.546875 0.46875 L 2.3125 -8.140625 L 2.3125 0 L 1.140625 0 Z M 1.140625 -11 "/></g></g></g><g fill="#f8f7f0" fill-opacity="1"><g transform="translate(225.236972, 271.785275)"><g><path d="M 4.953125 -11.0625 L 9.703125 0 L 8.40625 0 L 7.15625 -3 L 2.640625 -3 L 1.375 0 L 0.078125 0 Z M 3.125 -4.09375 L 6.6875 -4.09375 L 4.921875 -8.3125 Z M 1.90625 -10.5625 Z M 1.90625 -10.5625 "/></g></g></g><g fill="#f8f7f0" fill-opacity="1"><g transform="translate(238.517496, 271.785275)"><g><path d="M 9.5625 -7.65625 C 9.113281 -8.289062 8.585938 -8.78125 7.984375 -9.125 C 7.390625 -9.46875 6.707031 -9.640625 5.9375 -9.640625 C 5.164062 -9.640625 4.445312 -9.4375 3.78125 -9.03125 C 3.113281 -8.632812 2.585938 -8.097656 2.203125 -7.421875 C 1.816406 -6.742188 1.625 -6.015625 1.625 -5.234375 C 1.625 -4.453125 1.832031 -3.722656 2.25 -3.046875 C 2.664062 -2.378906 3.195312 -1.851562 3.84375 -1.46875 C 4.5 -1.09375 5.171875 -0.90625 5.859375 -0.90625 C 6.484375 -0.90625 7.085938 -1.050781 7.671875 -1.34375 C 8.253906 -1.632812 8.722656 -2.03125 9.078125 -2.53125 C 9.441406 -3.039062 9.625 -3.601562 9.625 -4.21875 L 6.484375 -4.21875 L 6.484375 -5.3125 L 10.875 -5.3125 L 10.875 -4.703125 C 10.875 -4.015625 10.753906 -3.375 10.515625 -2.78125 C 10.285156 -2.195312 9.925781 -1.679688 9.4375 -1.234375 C 8.957031 -0.785156 8.410156 -0.4375 7.796875 -0.1875 C 7.179688 0.0625 6.539062 0.1875 5.875 0.1875 C 4.914062 0.1875 4.015625 -0.0546875 3.171875 -0.546875 C 2.335938 -1.035156 1.675781 -1.703125 1.1875 -2.546875 C 0.695312 -3.390625 0.453125 -4.289062 0.453125 -5.25 C 0.453125 -6.226562 0.703125 -7.140625 1.203125 -7.984375 C 1.703125 -8.835938 2.378906 -9.507812 3.234375 -10 C 4.085938 -10.488281 4.992188 -10.734375 5.953125 -10.734375 C 6.878906 -10.734375 7.710938 -10.535156 8.453125 -10.140625 C 9.191406 -9.753906 9.847656 -9.191406 10.421875 -8.453125 Z M 9.5625 -7.65625 "/></g></g></g><g fill="#f8f7f0" fill-opacity="1"><g transform="translate(253.491083, 271.785275)"><g><path d="M 6.53125 -10.5625 L 6.53125 -9.46875 L 2.234375 -9.46875 L 2.234375 -6.328125 L 6.40625 -6.328125 L 6.40625 -5.234375 L 2.234375 -5.234375 L 2.234375 -1.09375 L 6.53125 -1.09375 L 6.53125 0 L 1.0625 0 L 1.0625 -10.5625 Z M 6.53125 -10.5625 "/></g></g></g><g fill="#f8f7f0" fill-opacity="1"><g transform="translate(264.462899, 271.785275)"><g><path d="M 2.671875 -10.5625 C 5.191406 -10.5625 6.453125 -9.585938 6.453125 -7.640625 C 6.453125 -6.828125 6.21875 -6.15625 5.75 -5.625 C 5.28125 -5.101562 4.632812 -4.804688 3.8125 -4.734375 L 7.171875 0 L 5.71875 0 L 2.53125 -4.640625 L 2.234375 -4.640625 L 2.234375 0 L 1.0625 0 L 1.0625 -10.5625 Z M 2.234375 -5.671875 L 2.765625 -5.671875 C 3.585938 -5.671875 4.210938 -5.820312 4.640625 -6.125 C 5.066406 -6.4375 5.28125 -6.914062 5.28125 -7.5625 C 5.28125 -8.257812 5.070312 -8.75 4.65625 -9.03125 C 4.238281 -9.320312 3.640625 -9.46875 2.859375 -9.46875 L 2.234375 -9.46875 Z M 2.234375 -5.671875 "/></g></g></g></svg>